<svg width="188" height="260" viewBox="0 0 188 260" fill="none" xmlns="http://www.w3.org/2000/svg">
<g filter="url(#filter0_d_168_10)">
<path d="M88.6256 221.152C88.6256 221.292 88.5656 221.422 88.4456 221.542C88.3456 221.662 88.2156 221.722 88.0556 221.722C87.8556 221.722 87.6456 221.722 87.4256 221.722C87.2056 221.702 86.9856 221.692 86.7656 221.692C86.4256 221.692 86.1856 221.802 86.0456 222.022C85.9056 222.242 85.8256 222.502 85.8056 222.802C85.8056 223.082 85.8056 223.352 85.8056 223.612C85.7856 226.272 85.7756 228.942 85.7756 231.622C85.7956 234.282 85.8056 236.952 85.8056 239.632C85.8056 241.192 85.5956 242.602 85.1756 243.862C84.7556 245.122 84.0356 246.122 83.0156 246.862C82.0156 247.622 80.6356 248.002 78.8756 248.002C78.4556 248.002 78.0256 247.992 77.5856 247.972C77.1456 247.972 76.7156 247.932 76.2956 247.852C75.9756 247.772 75.6156 247.632 75.2156 247.432C74.8156 247.232 74.4656 246.972 74.1656 246.652C73.8656 246.352 73.7156 246.022 73.7156 245.662C73.7156 245.062 73.9656 244.632 74.4656 244.372C74.9656 244.112 75.4656 243.982 75.9656 243.982C76.3856 243.982 76.8156 244.082 77.2556 244.282C77.7156 244.482 77.9456 244.842 77.9456 245.362C77.7856 245.442 77.6156 245.552 77.4356 245.692C77.2556 245.852 77.1656 246.042 77.1656 246.262C77.1656 246.482 77.2656 246.652 77.4656 246.772C77.6656 246.912 77.8956 247.002 78.1556 247.042C78.4356 247.082 78.6556 247.102 78.8156 247.102C79.5356 247.102 80.0856 246.922 80.4656 246.562C80.8456 246.222 81.1056 245.772 81.2456 245.212C81.3856 244.672 81.4556 244.092 81.4556 243.472C81.4756 242.872 81.4856 242.322 81.4856 241.822V223.612C81.4856 223.412 81.4756 223.172 81.4556 222.892C81.4556 222.592 81.4056 222.322 81.3056 222.082C81.2256 221.842 81.0556 221.702 80.7956 221.662C80.7356 221.642 80.6656 221.632 80.5856 221.632C80.5256 221.632 80.4556 221.632 80.3756 221.632C80.1156 221.632 79.8556 221.652 79.5956 221.692C79.3556 221.712 79.0956 221.722 78.8156 221.722C78.6756 221.722 78.5556 221.662 78.4556 221.542C78.3756 221.422 78.3356 221.292 78.3356 221.152C78.3356 221.012 78.3756 220.882 78.4556 220.762C78.5356 220.622 78.6556 220.552 78.8156 220.552C79.0556 220.552 79.2956 220.562 79.5356 220.582C79.7956 220.582 80.0456 220.592 80.2856 220.612C80.8256 220.632 81.3656 220.652 81.9056 220.672C82.4456 220.672 82.9956 220.672 83.5556 220.672C84.3156 220.672 85.0656 220.652 85.8056 220.612C86.5656 220.572 87.3156 220.552 88.0556 220.552C88.4356 220.552 88.6256 220.752 88.6256 221.152ZM106.327 237.052C106.327 238.212 106.067 239.182 105.547 239.962C105.027 240.722 104.337 241.322 103.477 241.762C102.637 242.202 101.717 242.512 100.717 242.692C99.7173 242.872 98.7373 242.962 97.7773 242.962C97.0373 242.962 96.3273 242.852 95.6473 242.632C94.9673 242.432 94.2773 242.202 93.5773 241.942C93.2373 241.822 92.8973 241.752 92.5573 241.732C92.2373 241.692 91.8973 241.672 91.5373 241.672C91.4773 241.192 91.4173 240.722 91.3573 240.262C91.2973 239.782 91.2273 239.302 91.1473 238.822C91.1073 238.482 91.0573 238.152 90.9973 237.832C90.9373 237.512 90.9073 237.192 90.9073 236.872C90.9073 236.592 90.9573 236.362 91.0573 236.182C91.1773 236.002 91.3873 235.912 91.6873 235.912C91.9673 235.912 92.1773 235.972 92.3173 236.092C92.4773 236.192 92.5973 236.372 92.6773 236.632C92.8173 236.992 92.9273 237.362 93.0073 237.742C93.1073 238.122 93.2273 238.502 93.3673 238.882C93.7073 239.822 94.2573 240.572 95.0173 241.132C95.7973 241.692 96.7073 241.972 97.7473 241.972C99.1473 241.972 100.217 241.572 100.957 240.772C101.717 239.952 102.097 238.852 102.097 237.472C102.097 236.672 101.927 236.012 101.587 235.492C101.247 234.952 100.807 234.492 100.267 234.112C99.7273 233.732 99.1473 233.372 98.5273 233.032C97.9473 232.712 97.3573 232.412 96.7573 232.132C96.1573 231.852 95.5673 231.562 94.9873 231.262C94.3473 230.922 93.7173 230.502 93.0973 230.002C92.4973 229.482 91.9973 228.892 91.5973 228.232C91.2173 227.552 91.0273 226.822 91.0273 226.042C91.0273 224.722 91.3673 223.632 92.0473 222.772C92.7473 221.912 93.6373 221.272 94.7173 220.852C95.8173 220.432 96.9573 220.222 98.1373 220.222C98.8973 220.222 99.6273 220.332 100.327 220.552C101.047 220.752 101.747 220.992 102.427 221.272C102.647 221.352 102.847 221.412 103.027 221.452C103.227 221.492 103.437 221.512 103.657 221.512C103.817 221.512 103.967 221.512 104.107 221.512C104.247 221.492 104.387 221.472 104.527 221.452C104.587 222.092 104.657 222.732 104.737 223.372C104.817 224.012 104.897 224.652 104.977 225.292C104.997 225.392 105.007 225.502 105.007 225.622C105.027 225.722 105.037 225.822 105.037 225.922C105.037 226.202 104.977 226.462 104.857 226.702C104.737 226.922 104.507 227.032 104.167 227.032C103.907 227.032 103.717 226.972 103.597 226.852C103.477 226.732 103.367 226.562 103.267 226.342C103.027 225.722 102.797 225.112 102.577 224.512C102.357 223.912 102.037 223.352 101.617 222.832C101.177 222.272 100.627 221.862 99.9673 221.602C99.3073 221.322 98.6273 221.182 97.9273 221.182C97.2473 221.182 96.6773 221.372 96.2173 221.752C95.7573 222.112 95.4173 222.582 95.1973 223.162C94.9773 223.742 94.8673 224.342 94.8673 224.962C94.8673 225.922 95.1173 226.672 95.6173 227.212C96.1373 227.732 96.7773 228.212 97.5373 228.652C97.9573 228.872 98.3773 229.092 98.7973 229.312C99.2373 229.512 99.6673 229.712 100.087 229.912C101.087 230.372 102.057 230.932 102.997 231.592C103.957 232.232 104.747 233.002 105.367 233.902C106.007 234.782 106.327 235.832 106.327 237.052Z" fill="black"/>
<ellipse cx="94" cy="89.8765" rx="90" ry="89.8765" fill="#FFF853"/>
<path d="M62.4831 106.719C62.4831 109.119 62.1431 111.119 61.4631 112.719C60.8231 114.359 59.9831 115.739 58.9431 116.859C57.9431 117.979 56.8031 118.899 55.5231 119.619C54.2831 120.339 53.0631 120.999 51.8631 121.599L49.0431 116.859C50.6031 116.099 51.8031 115.279 52.6431 114.399C53.5231 113.559 54.1631 112.719 54.5631 111.879C54.9631 111.079 55.1831 110.299 55.2231 109.539C55.3031 108.779 55.3431 108.079 55.3431 107.439V67.5985H62.4831V106.719ZM82.5704 67.0585C83.9704 67.0585 85.3104 67.1985 86.5904 67.4785C87.8704 67.7185 89.0304 68.0185 90.0704 68.3785C91.1504 68.6985 92.0504 69.0385 92.7704 69.3985C93.5304 69.7585 94.0504 70.0385 94.3304 70.2385L91.3904 75.3985L90.6104 74.9785C90.0904 74.6985 89.4104 74.3785 88.5704 74.0185C87.7304 73.6585 86.8104 73.3385 85.8104 73.0585C84.8104 72.7785 83.8504 72.6385 82.9304 72.6385C81.4904 72.6385 80.2304 72.9785 79.1504 73.6585C78.1104 74.3385 77.5904 75.3985 77.5904 76.8385C77.5904 78.6385 78.1704 80.1185 79.3304 81.2785C80.4904 82.3985 82.3104 83.4385 84.7904 84.3985C86.3904 85.0385 87.8104 85.7185 89.0504 86.4385C90.3304 87.1185 91.4104 87.9185 92.2904 88.8385C93.1704 89.7585 93.8304 90.8185 94.2704 92.0185C94.7504 93.2185 94.9904 94.6585 94.9904 96.3385C94.9904 97.8585 94.6904 99.3585 94.0904 100.839C93.5304 102.319 92.6704 103.639 91.5104 104.799C90.3904 105.919 88.9904 106.839 87.3104 107.559C85.6304 108.239 83.6904 108.579 81.4904 108.579C79.9304 108.579 78.4504 108.419 77.0504 108.099C75.6504 107.779 74.3704 107.419 73.2104 107.019C72.0904 106.579 71.1104 106.139 70.2704 105.699C69.4704 105.259 68.8704 104.919 68.4704 104.679L70.9904 99.1585L72.0704 99.7585C72.7904 100.159 73.6704 100.599 74.7104 101.079C75.7504 101.559 76.8504 101.999 78.0104 102.399C79.1704 102.799 80.1704 102.999 81.0104 102.999C83.1304 102.999 84.7104 102.479 85.7504 101.439C86.7904 100.399 87.3104 98.9385 87.3104 97.0585C87.3104 96.1785 87.1704 95.4185 86.8904 94.7785C86.6104 94.0985 86.2104 93.5185 85.6904 93.0385C85.1704 92.5585 84.5304 92.1385 83.7704 91.7785C83.0504 91.3785 82.2304 90.9985 81.3104 90.6385C79.5104 89.8785 77.8904 89.1185 76.4504 88.3585C75.0504 87.5985 73.8504 86.7385 72.8504 85.7785C71.8504 84.7785 71.0904 83.6585 70.5704 82.4185C70.0504 81.1385 69.7904 79.6185 69.7904 77.8585C69.7904 76.3785 70.1104 74.9985 70.7504 73.7185C71.3904 72.3985 72.2704 71.2585 73.3904 70.2985C74.5104 69.2985 75.8504 68.5185 77.4104 67.9585C78.9704 67.3585 80.6904 67.0585 82.5704 67.0585Z" fill="black"/>
</g>
<defs>
<filter id="filter0_d_168_10" x="0" y="0" width="188" height="256.002" filterUnits="userSpaceOnUse" color-interpolation-filters="sRGB">
<feFlood flood-opacity="0" result="BackgroundImageFix"/>
<feColorMatrix in="SourceAlpha" type="matrix" values="0 0 0 0 0 0 0 0 0 0 0 0 0 0 0 0 0 0 127 0" result="hardAlpha"/>
<feOffset dy="4"/>
<feGaussianBlur stdDeviation="2"/>
<feComposite in2="hardAlpha" operator="out"/>
<feColorMatrix type="matrix" values="0 0 0 0 0 0 0 0 0 0 0 0 0 0 0 0 0 0 0.25 0"/>
<feBlend mode="normal" in2="BackgroundImageFix" result="effect1_dropShadow_168_10"/>
<feBlend mode="normal" in="SourceGraphic" in2="effect1_dropShadow_168_10" result="shape"/>
</filter>
</defs>
</svg>
