<svg width="168" height="243" viewBox="0 0 168 243" fill="none" xmlns="http://www.w3.org/2000/svg">
<path d="M79.84 207.58C79.84 207.72 79.78 207.85 79.66 207.97C79.56 208.09 79.43 208.15 79.27 208.15C79.07 208.15 78.86 208.15 78.64 208.15C78.42 208.13 78.2 208.12 77.98 208.12C77.64 208.12 77.4 208.23 77.26 208.45C77.12 208.67 77.04 208.93 77.02 209.23C77.02 209.51 77.02 209.78 77.02 210.04C77 212.7 76.99 215.37 76.99 218.05C77.01 220.71 77.02 223.38 77.02 226.06C77.02 227.62 76.81 229.03 76.39 230.29C75.97 231.55 75.25 232.55 74.23 233.29C73.23 234.05 71.85 234.43 70.09 234.43C69.67 234.43 69.24 234.42 68.8 234.4C68.36 234.4 67.93 234.36 67.51 234.28C67.19 234.2 66.83 234.06 66.43 233.86C66.03 233.66 65.68 233.4 65.38 233.08C65.08 232.78 64.93 232.45 64.93 232.09C64.93 231.49 65.18 231.06 65.68 230.8C66.18 230.54 66.68 230.41 67.18 230.41C67.6 230.41 68.03 230.51 68.47 230.71C68.93 230.91 69.16 231.27 69.16 231.79C69 231.87 68.83 231.98 68.65 232.12C68.47 232.28 68.38 232.47 68.38 232.69C68.38 232.91 68.48 233.08 68.68 233.2C68.88 233.34 69.11 233.43 69.37 233.47C69.65 233.51 69.87 233.53 70.03 233.53C70.75 233.53 71.3 233.35 71.68 232.99C72.06 232.65 72.32 232.2 72.46 231.64C72.6 231.1 72.67 230.52 72.67 229.9C72.69 229.3 72.7 228.75 72.7 228.25V210.04C72.7 209.84 72.69 209.6 72.67 209.32C72.67 209.02 72.62 208.75 72.52 208.51C72.44 208.27 72.27 208.13 72.01 208.09C71.95 208.07 71.88 208.06 71.8 208.06C71.74 208.06 71.67 208.06 71.59 208.06C71.33 208.06 71.07 208.08 70.81 208.12C70.57 208.14 70.31 208.15 70.03 208.15C69.89 208.15 69.77 208.09 69.67 207.97C69.59 207.85 69.55 207.72 69.55 207.58C69.55 207.44 69.59 207.31 69.67 207.19C69.75 207.05 69.87 206.98 70.03 206.98C70.27 206.98 70.51 206.99 70.75 207.01C71.01 207.01 71.26 207.02 71.5 207.04C72.04 207.06 72.58 207.08 73.12 207.1C73.66 207.1 74.21 207.1 74.77 207.1C75.53 207.1 76.28 207.08 77.02 207.04C77.78 207 78.53 206.98 79.27 206.98C79.65 206.98 79.84 207.18 79.84 207.58ZM97.5416 223.48C97.5416 224.64 97.2816 225.61 96.7616 226.39C96.2416 227.15 95.5516 227.75 94.6916 228.19C93.8516 228.63 92.9316 228.94 91.9316 229.12C90.9316 229.3 89.9516 229.39 88.9916 229.39C88.2516 229.39 87.5416 229.28 86.8616 229.06C86.1816 228.86 85.4916 228.63 84.7916 228.37C84.4516 228.25 84.1116 228.18 83.7716 228.16C83.4516 228.12 83.1116 228.1 82.7516 228.1C82.6916 227.62 82.6316 227.15 82.5716 226.69C82.5116 226.21 82.4416 225.73 82.3616 225.25C82.3216 224.91 82.2716 224.58 82.2116 224.26C82.1516 223.94 82.1216 223.62 82.1216 223.3C82.1216 223.02 82.1716 222.79 82.2716 222.61C82.3916 222.43 82.6016 222.34 82.9016 222.34C83.1816 222.34 83.3916 222.4 83.5316 222.52C83.6916 222.62 83.8116 222.8 83.8916 223.06C84.0316 223.42 84.1416 223.79 84.2216 224.17C84.3216 224.55 84.4416 224.93 84.5816 225.31C84.9216 226.25 85.4716 227 86.2316 227.56C87.0116 228.12 87.9216 228.4 88.9616 228.4C90.3616 228.4 91.4316 228 92.1716 227.2C92.9316 226.38 93.3116 225.28 93.3116 223.9C93.3116 223.1 93.1416 222.44 92.8016 221.92C92.4616 221.38 92.0216 220.92 91.4816 220.54C90.9416 220.16 90.3616 219.8 89.7416 219.46C89.1616 219.14 88.5716 218.84 87.9716 218.56C87.3716 218.28 86.7816 217.99 86.2016 217.69C85.5616 217.35 84.9316 216.93 84.3116 216.43C83.7116 215.91 83.2116 215.32 82.8116 214.66C82.4316 213.98 82.2416 213.25 82.2416 212.47C82.2416 211.15 82.5816 210.06 83.2616 209.2C83.9616 208.34 84.8516 207.7 85.9316 207.28C87.0316 206.86 88.1716 206.65 89.3516 206.65C90.1116 206.65 90.8416 206.76 91.5416 206.98C92.2616 207.18 92.9616 207.42 93.6416 207.7C93.8616 207.78 94.0616 207.84 94.2416 207.88C94.4416 207.92 94.6516 207.94 94.8716 207.94C95.0316 207.94 95.1816 207.94 95.3216 207.94C95.4616 207.92 95.6016 207.9 95.7416 207.88C95.8016 208.52 95.8716 209.16 95.9516 209.8C96.0316 210.44 96.1116 211.08 96.1916 211.72C96.2116 211.82 96.2216 211.93 96.2216 212.05C96.2416 212.15 96.2516 212.25 96.2516 212.35C96.2516 212.63 96.1916 212.89 96.0716 213.13C95.9516 213.35 95.7216 213.46 95.3816 213.46C95.1216 213.46 94.9316 213.4 94.8116 213.28C94.6916 213.16 94.5816 212.99 94.4816 212.77C94.2416 212.15 94.0116 211.54 93.7916 210.94C93.5716 210.34 93.2516 209.78 92.8316 209.26C92.3916 208.7 91.8416 208.29 91.1816 208.03C90.5216 207.75 89.8416 207.61 89.1416 207.61C88.4616 207.61 87.8916 207.8 87.4316 208.18C86.9716 208.54 86.6316 209.01 86.4116 209.59C86.1916 210.17 86.0816 210.77 86.0816 211.39C86.0816 212.35 86.3316 213.1 86.8316 213.64C87.3516 214.16 87.9916 214.64 88.7516 215.08C89.1716 215.3 89.5916 215.52 90.0116 215.74C90.4516 215.94 90.8816 216.14 91.3016 216.34C92.3016 216.8 93.2716 217.36 94.2116 218.02C95.1716 218.66 95.9616 219.43 96.5816 220.33C97.2216 221.21 97.5416 222.26 97.5416 223.48Z" fill="black"/>
<circle cx="84" cy="84" r="84" fill="#F8F153"/>
<path d="M55.34 103.5C55.34 105.9 55 107.9 54.32 109.5C53.68 111.14 52.84 112.52 51.8 113.64C50.8 114.76 49.66 115.68 48.38 116.4C47.14 117.12 45.92 117.78 44.72 118.38L41.9 113.64C43.46 112.88 44.66 112.06 45.5 111.18C46.38 110.34 47.02 109.5 47.42 108.66C47.82 107.86 48.04 107.08 48.08 106.32C48.16 105.56 48.2 104.86 48.2 104.22V64.38H55.34V103.5ZM75.4273 63.84C76.8273 63.84 78.1673 63.98 79.4473 64.26C80.7273 64.5 81.8873 64.8 82.9273 65.16C84.0073 65.48 84.9073 65.82 85.6273 66.18C86.3873 66.54 86.9073 66.82 87.1873 67.02L84.2473 72.18L83.4673 71.76C82.9473 71.48 82.2673 71.16 81.4273 70.8C80.5873 70.44 79.6673 70.12 78.6673 69.84C77.6673 69.56 76.7073 69.42 75.7873 69.42C74.3473 69.42 73.0873 69.76 72.0073 70.44C70.9673 71.12 70.4473 72.18 70.4473 73.62C70.4473 75.42 71.0273 76.9 72.1873 78.06C73.3473 79.18 75.1673 80.22 77.6473 81.18C79.2473 81.82 80.6673 82.5 81.9073 83.22C83.1873 83.9 84.2673 84.7 85.1473 85.62C86.0273 86.54 86.6873 87.6 87.1273 88.8C87.6073 90 87.8473 91.44 87.8473 93.12C87.8473 94.64 87.5473 96.14 86.9473 97.62C86.3873 99.1 85.5273 100.42 84.3673 101.58C83.2473 102.7 81.8473 103.62 80.1673 104.34C78.4873 105.02 76.5473 105.36 74.3473 105.36C72.7873 105.36 71.3073 105.2 69.9073 104.88C68.5073 104.56 67.2273 104.2 66.0673 103.8C64.9473 103.36 63.9673 102.92 63.1273 102.48C62.3273 102.04 61.7273 101.7 61.3273 101.46L63.8473 95.94L64.9273 96.54C65.6473 96.94 66.5273 97.38 67.5673 97.86C68.6073 98.34 69.7073 98.78 70.8673 99.18C72.0273 99.58 73.0273 99.78 73.8673 99.78C75.9873 99.78 77.5673 99.26 78.6073 98.22C79.6473 97.18 80.1673 95.72 80.1673 93.84C80.1673 92.96 80.0273 92.2 79.7473 91.56C79.4673 90.88 79.0673 90.3 78.5473 89.82C78.0273 89.34 77.3873 88.92 76.6273 88.56C75.9073 88.16 75.0873 87.78 74.1673 87.42C72.3673 86.66 70.7473 85.9 69.3073 85.14C67.9073 84.38 66.7073 83.52 65.7073 82.56C64.7073 81.56 63.9473 80.44 63.4273 79.2C62.9073 77.92 62.6473 76.4 62.6473 74.64C62.6473 73.16 62.9673 71.78 63.6073 70.5C64.2473 69.18 65.1273 68.04 66.2473 67.08C67.3673 66.08 68.7073 65.3 70.2673 64.74C71.8273 64.14 73.5473 63.84 75.4273 63.84Z" fill="black"/>
</svg>
