<svg width="174" height="166" viewBox="0 0 174 166" fill="none" xmlns="http://www.w3.org/2000/svg">
<rect width="174" height="166" fill="#FFF853"/>
<path d="M48.633 101.5C48.633 103.9 48.293 105.9 47.613 107.5C46.973 109.14 46.133 110.52 45.093 111.64C44.093 112.76 42.953 113.68 41.673 114.4C40.433 115.12 39.213 115.78 38.013 116.38L35.193 111.64C36.753 110.88 37.953 110.06 38.793 109.18C39.673 108.34 40.313 107.5 40.713 106.66C41.113 105.86 41.333 105.08 41.373 104.32C41.453 103.56 41.493 102.86 41.493 102.22V62.38H48.633V101.5ZM68.7203 61.84C70.1203 61.84 71.4603 61.98 72.7403 62.26C74.0203 62.5 75.1803 62.8 76.2203 63.16C77.3003 63.48 78.2003 63.82 78.9203 64.18C79.6803 64.54 80.2003 64.82 80.4803 65.02L77.5403 70.18L76.7603 69.76C76.2403 69.48 75.5603 69.16 74.7203 68.8C73.8803 68.44 72.9603 68.12 71.9603 67.84C70.9603 67.56 70.0003 67.42 69.0803 67.42C67.6403 67.42 66.3803 67.76 65.3003 68.44C64.2603 69.12 63.7403 70.18 63.7403 71.62C63.7403 73.42 64.3203 74.9 65.4803 76.06C66.6403 77.18 68.4603 78.22 70.9403 79.18C72.5403 79.82 73.9603 80.5 75.2003 81.22C76.4803 81.9 77.5603 82.7 78.4403 83.62C79.3203 84.54 79.9803 85.6 80.4203 86.8C80.9003 88 81.1403 89.44 81.1403 91.12C81.1403 92.64 80.8403 94.14 80.2403 95.62C79.6803 97.1 78.8203 98.42 77.6603 99.58C76.5403 100.7 75.1403 101.62 73.4603 102.34C71.7803 103.02 69.8403 103.36 67.6403 103.36C66.0803 103.36 64.6003 103.2 63.2003 102.88C61.8003 102.56 60.5203 102.2 59.3603 101.8C58.2403 101.36 57.2603 100.92 56.4203 100.48C55.6203 100.04 55.0203 99.7 54.6203 99.46L57.1403 93.94L58.2203 94.54C58.9403 94.94 59.8203 95.38 60.8603 95.86C61.9003 96.34 63.0003 96.78 64.1603 97.18C65.3203 97.58 66.3203 97.78 67.1603 97.78C69.2803 97.78 70.8603 97.26 71.9003 96.22C72.9403 95.18 73.4603 93.72 73.4603 91.84C73.4603 90.96 73.3203 90.2 73.0403 89.56C72.7603 88.88 72.3603 88.3 71.8403 87.82C71.3203 87.34 70.6803 86.92 69.9203 86.56C69.2003 86.16 68.3803 85.78 67.4603 85.42C65.6603 84.66 64.0403 83.9 62.6003 83.14C61.2003 82.38 60.0003 81.52 59.0003 80.56C58.0003 79.56 57.2403 78.44 56.7203 77.2C56.2003 75.92 55.9403 74.4 55.9403 72.64C55.9403 71.16 56.2603 69.78 56.9003 68.5C57.5403 67.18 58.4203 66.04 59.5403 65.08C60.6603 64.08 62.0003 63.3 63.5603 62.74C65.1203 62.14 66.8403 61.84 68.7203 61.84Z" fill="black"/>
</svg>
