<svg width="1440" height="426" viewBox="0 0 1440 426" fill="none" xmlns="http://www.w3.org/2000/svg">
<rect width="1440" height="426" fill="#FFF62A" fill-opacity="0.48"/>
<rect x="204" y="273" width="210.102" height="49.2024" rx="20" fill="white"/>
<path d="M238.436 290.271H241.298V293.079C241.298 298.857 238.949 304.5 234.251 306.633L232.226 303.798C236.411 301.935 238.436 297.318 238.436 293.079V290.271ZM239.246 290.271H242.081V293.079C242.081 297.129 244.079 301.449 248.264 303.177L246.32 306.012C241.568 303.96 239.246 298.641 239.246 293.079V290.271ZM233.225 288.732H247.238V291.675H233.225V288.732ZM249.56 286.329H253.178V311.331H249.56V286.329ZM260.034 287.436H275.883V290.298H260.034V287.436ZM257.28 296.427H279.906V299.289H257.28V296.427ZM273.723 287.436H277.26V289.434C277.26 291.594 277.26 293.916 276.504 297.156L272.94 297.102C273.723 293.862 273.723 291.567 273.723 289.434V287.436ZM259.926 301.908H277.152V311.061H259.926V301.908ZM273.615 304.689H263.436V308.226H273.615V304.689ZM294.458 297.75H298.049V301.341H294.458V297.75ZM305.042 286.356H308.633V303.366H305.042V286.356ZM307.364 293.484H311.765V296.427H307.364V293.484ZM288.896 302.88L288.491 300.099C292.973 300.099 298.886 300.072 303.935 299.451L304.205 301.908C298.994 302.799 293.27 302.853 288.896 302.88ZM291.677 304.365H308.633V311.331H305.042V307.119H291.677V304.365ZM289.139 288.165H303.314V290.73H289.139V288.165ZM296.24 291.324C299.912 291.324 302.315 292.755 302.315 295.05C302.315 297.345 299.912 298.776 296.24 298.776C292.541 298.776 290.138 297.345 290.138 295.05C290.138 292.755 292.541 291.324 296.24 291.324ZM296.24 293.673C294.539 293.673 293.54 294.105 293.54 295.05C293.54 295.941 294.539 296.427 296.24 296.427C297.914 296.427 298.913 295.941 298.913 295.05C298.913 294.105 297.914 293.673 296.24 293.673ZM294.458 286.14H298.049V289.326H294.458V286.14ZM330.798 286.356H334.416V304.311H330.798V286.356ZM317.757 308.037H335.037V310.899H317.757V308.037ZM317.757 302.502H321.348V309.198H317.757V302.502ZM320.808 287.922C324.642 287.922 327.585 290.568 327.585 294.267C327.585 297.939 324.642 300.612 320.808 300.612C316.974 300.612 314.004 297.939 314.004 294.267C314.004 290.568 316.974 287.922 320.808 287.922ZM320.808 291.027C318.945 291.027 317.514 292.215 317.514 294.267C317.514 296.292 318.945 297.48 320.808 297.48C322.644 297.48 324.075 296.292 324.075 294.267C324.075 292.215 322.644 291.027 320.808 291.027ZM354.502 286.329H358.066V311.331H354.502V286.329ZM357.256 296.076H361.684V299.073H357.256V296.076ZM338.356 290.028H352.909V292.89H338.356V290.028ZM345.673 294.294C349.318 294.294 352.018 296.778 352.018 300.261C352.018 303.744 349.318 306.228 345.673 306.228C342.028 306.228 339.328 303.744 339.328 300.261C339.328 296.778 342.028 294.294 345.673 294.294ZM345.673 297.21C343.972 297.21 342.757 298.344 342.757 300.261C342.757 302.178 343.972 303.312 345.673 303.312C347.374 303.312 348.589 302.178 348.589 300.261C348.589 298.344 347.374 297.21 345.673 297.21ZM343.864 286.734H347.455V291.108H343.864V286.734ZM380.528 286.329H384.146V311.331H380.528V286.329ZM373.157 288.921H376.721C376.721 296.562 374.129 302.826 365.246 307.119L363.383 304.257C370.565 300.801 373.157 296.265 373.157 289.569V288.921ZM364.706 288.921H374.858V291.756H364.706V288.921Z" fill="black"/>
<path d="M214.314 186.533H216.294V190.943C216.294 196.583 212.844 202.403 208.614 204.563L207.174 202.583C211.044 200.693 214.314 195.533 214.314 190.943V186.533ZM214.764 186.533H216.744V190.943C216.744 195.233 219.804 200.063 223.734 201.923L222.324 203.903C218.034 201.773 214.764 196.313 214.764 190.943V186.533ZM208.134 185.423H222.744V187.523H208.134V185.423ZM225.954 182.663H228.474V209.783H225.954V182.663ZM227.874 193.613H232.914V195.713H227.874V193.613ZM253.552 182.663H256.072V209.783H253.552V182.663ZM255.472 193.313H260.512V195.443H255.472V193.313ZM236.272 184.943H238.732V192.113H246.472V184.943H248.932V203.273H236.272V184.943ZM238.732 194.093V201.233H246.472V194.093H238.732ZM281.326 184.523H283.486V186.593C283.486 192.503 277.996 197.093 272.566 198.323L271.456 196.253C276.226 195.353 281.326 191.213 281.326 186.593V184.523ZM281.776 184.523H283.936V186.593C283.936 191.243 289.066 195.353 293.806 196.253L292.696 198.323C287.296 197.093 281.776 192.533 281.776 186.593V184.523ZM270.466 204.083H295.036V206.123H270.466V204.083ZM300.973 185.423H318.193V187.463H300.973V185.423ZM298.063 203.933H322.573V206.033H298.063V203.933ZM317.113 185.423H319.543V188.753C319.543 192.743 319.543 196.433 318.403 201.983L315.943 201.743C317.113 196.523 317.113 192.653 317.113 188.753V185.423ZM317.743 192.923V194.783L300.613 195.713L300.253 193.643L317.743 192.923ZM345.371 182.663H347.891V197.573H345.371V182.663ZM327.041 194.963H329.231C334.151 194.963 337.781 194.813 342.131 194.093L342.401 196.163C337.931 196.853 334.271 197.003 329.231 197.003H327.041V194.963ZM326.981 183.983H339.281V191.333H329.471V196.313H327.041V189.383H336.851V185.993H326.981V183.983ZM330.341 198.923H332.801V202.103H345.431V198.923H347.891V209.423H330.341V198.923ZM332.801 204.083V207.383H345.431V204.083H332.801ZM356.409 197.273H375.039V199.283H356.409V197.273ZM353.259 204.233H377.829V206.303H353.259V204.233ZM356.409 184.973H374.739V187.013H358.929V197.903H356.409V184.973ZM358.119 191.033H374.169V193.013H358.119V191.033ZM402.963 189.443H408.993V191.513H402.963V189.443ZM408.303 182.663H410.793V198.533H408.303V182.663ZM393.213 199.853H410.793V209.423H393.213V199.853ZM408.363 201.833H395.643V207.413H408.363V201.833ZM395.403 185.243H397.443V187.433C397.443 192.383 394.383 196.613 389.853 198.293L388.563 196.313C392.613 194.873 395.403 191.273 395.403 187.433V185.243ZM395.883 185.243H397.893V187.403C397.893 190.913 400.533 194.303 404.463 195.683L403.203 197.663C398.793 196.073 395.883 191.963 395.883 187.403V185.243ZM389.343 184.403H403.833V186.413H389.343V184.403ZM417.211 195.923H419.161C424.501 195.923 427.141 195.833 430.381 195.263L430.651 197.273C427.291 197.873 424.591 197.963 419.161 197.963H417.211V195.923ZM417.151 184.193H428.851V191.813H419.671V197.243H417.211V189.893H426.361V186.203H417.151V184.193ZM435.931 182.693H438.391V199.433H435.931V182.693ZM430.651 186.923H436.501V188.933H430.651V186.923ZM430.651 192.443H436.501V194.483H430.651V192.443ZM429.481 199.943C435.091 199.943 438.511 201.743 438.511 204.923C438.511 208.103 435.091 209.933 429.481 209.933C423.871 209.933 420.451 208.103 420.451 204.923C420.451 201.743 423.871 199.943 429.481 199.943ZM429.481 201.863C425.401 201.863 422.911 202.973 422.911 204.923C422.911 206.873 425.401 208.013 429.481 208.013C433.591 208.013 436.051 206.873 436.051 204.923C436.051 202.973 433.591 201.863 429.481 201.863ZM443.638 187.283H457.078V189.323H443.638V187.283ZM450.358 191.123C453.748 191.123 456.208 193.673 456.208 197.333C456.208 200.963 453.748 203.513 450.358 203.513C446.998 203.513 444.538 200.963 444.538 197.333C444.538 193.673 446.998 191.123 450.358 191.123ZM450.358 193.253C448.288 193.253 446.788 194.933 446.788 197.333C446.788 199.733 448.288 201.413 450.358 201.413C452.458 201.413 453.988 199.733 453.988 197.333C453.988 194.933 452.458 193.253 450.358 193.253ZM464.248 182.663H466.648V209.783H464.248V182.663ZM459.928 194.063H465.058V196.133H459.928V194.063ZM458.458 183.263H460.798V208.463H458.458V183.263ZM449.158 183.443H451.618V188.543H449.158V183.443ZM471.296 204.263H495.866V206.333H471.296V204.263ZM482.276 197.783H484.766V204.863H482.276V197.783ZM474.176 184.583H476.636V189.413H490.466V184.583H492.926V198.443H474.176V184.583ZM476.636 191.423V196.403H490.466V191.423H476.636ZM505.584 186.533H507.564V190.943C507.564 196.583 504.114 202.403 499.884 204.563L498.444 202.583C502.314 200.693 505.584 195.533 505.584 190.943V186.533ZM506.034 186.533H508.014V190.943C508.014 195.233 511.074 200.063 515.004 201.923L513.594 203.903C509.304 201.773 506.034 196.313 506.034 190.943V186.533ZM499.404 185.423H514.014V187.523H499.404V185.423ZM517.224 182.663H519.744V209.783H517.224V182.663ZM519.144 193.613H524.184V195.713H519.144V193.613ZM533.181 186.533H535.161V190.943C535.161 196.583 531.711 202.403 527.481 204.563L526.041 202.583C529.911 200.693 533.181 195.533 533.181 190.943V186.533ZM533.631 186.533H535.611V190.943C535.611 195.233 538.671 200.063 542.601 201.923L541.191 203.903C536.901 201.773 533.631 196.313 533.631 190.943V186.533ZM527.001 185.423H541.611V187.523H527.001V185.423ZM544.821 182.663H547.341V209.783H544.821V182.663ZM546.741 193.613H551.781V195.713H546.741V193.613Z" fill="black"/>
<path d="M219.32 151.42C219.32 153.66 219.02 155.6 218.42 157.24C217.82 158.88 216.98 160.32 215.9 161.56C214.82 162.8 213.56 163.88 212.12 164.8C210.68 165.72 209.12 166.58 207.44 167.38L203.42 160.72C204.94 159.92 206.1 159.12 206.9 158.32C207.74 157.56 208.34 156.78 208.7 155.98C209.1 155.22 209.32 154.48 209.36 153.76C209.44 153 209.48 152.26 209.48 151.54V113.38H219.32V151.42ZM239.129 112.84C240.569 112.84 241.949 112.96 243.269 113.2C244.629 113.44 245.889 113.74 247.049 114.1C248.209 114.46 249.249 114.88 250.169 115.36C251.129 115.8 251.949 116.26 252.629 116.74L249.149 123.34C248.669 123.1 248.089 122.8 247.409 122.44C246.729 122.04 245.989 121.66 245.189 121.3C244.429 120.94 243.629 120.64 242.789 120.4C241.989 120.16 241.209 120.04 240.449 120.04C239.049 120.04 238.009 120.34 237.329 120.94C236.649 121.5 236.309 122.22 236.309 123.1C236.349 123.78 236.509 124.38 236.789 124.9C237.069 125.42 237.489 125.94 238.049 126.46C238.609 126.94 239.329 127.42 240.209 127.9C241.089 128.38 242.169 128.88 243.449 129.4C245.049 130.08 246.449 130.78 247.649 131.5C248.849 132.22 249.829 133.04 250.589 133.96C251.389 134.88 251.989 135.92 252.389 137.08C252.789 138.24 252.989 139.58 252.989 141.1C252.989 142.94 252.649 144.68 251.969 146.32C251.329 147.92 250.389 149.32 249.149 150.52C247.909 151.72 246.409 152.66 244.649 153.34C242.889 154.02 240.909 154.36 238.709 154.36C237.149 154.36 235.649 154.22 234.209 153.94C232.809 153.66 231.509 153.3 230.309 152.86C229.109 152.42 228.009 151.96 227.009 151.48C226.009 150.96 225.149 150.48 224.429 150.04L227.669 142.96C227.949 143.16 228.469 143.5 229.229 143.98C229.989 144.42 230.849 144.88 231.809 145.36C232.769 145.8 233.749 146.2 234.749 146.56C235.749 146.92 236.649 147.1 237.449 147.1C239.129 147.1 240.349 146.72 241.109 145.96C241.909 145.16 242.309 144.04 242.309 142.6C242.309 141.16 241.809 140.08 240.809 139.36C239.849 138.6 238.469 137.86 236.669 137.14C234.909 136.42 233.349 135.66 231.989 134.86C230.629 134.06 229.469 133.16 228.509 132.16C227.589 131.16 226.869 130.04 226.349 128.8C225.869 127.56 225.629 126.12 225.629 124.48C225.629 122.68 225.989 121.08 226.709 119.68C227.469 118.24 228.469 117.02 229.709 116.02C230.949 114.98 232.369 114.2 233.969 113.68C235.609 113.12 237.329 112.84 239.129 112.84Z" fill="black"/>
<path d="M207.624 246.012H232.194V248.082H207.624V246.012ZM209.754 227.142H229.884V229.182H209.754V227.142ZM209.814 238.602H229.854V240.642H209.814V238.602ZM213.984 229.032H216.474V238.812H213.984V229.032ZM223.224 229.032H225.684V238.812H223.224V229.032ZM235.192 239.922H259.792V241.962H235.192V239.922ZM238.432 249.252H257.212V251.292H238.432V249.252ZM238.432 243.762H240.922V249.852H238.432V243.762ZM246.232 236.022H248.722V240.792H246.232V236.022ZM238.312 225.312H256.612V232.032H240.832V235.692H238.372V230.202H254.182V227.262H238.312V225.312ZM238.372 235.032H257.212V236.982H238.372V235.032ZM265.969 239.052H284.599V241.062H265.969V239.052ZM262.819 246.012H287.389V248.082H262.819V246.012ZM265.969 226.752H284.299V228.792H268.489V239.682H265.969V226.752ZM267.679 232.812H283.729V234.792H267.679V232.812ZM299.263 226.182H301.603V230.442H307.393V226.182H309.763V238.812H299.263V226.182ZM301.603 232.422V236.802H307.393V232.422H301.603ZM318.523 224.472H320.893V240.732H318.523V224.472ZM314.143 231.492H319.273V233.562H314.143V231.492ZM312.703 224.952H315.073V240.582H312.703V224.952ZM302.713 242.352H320.893V251.562H318.433V244.392H302.713V242.352ZM335.558 225.132H355.478V227.082H335.558V225.132ZM335.678 232.152H355.358V234.072H335.678V232.152ZM339.668 225.882H342.158V233.502H339.668V225.882ZM348.908 225.882H351.368V233.502H348.908V225.882ZM333.278 236.292H357.788V238.302H333.278V236.292ZM344.288 237.462H346.748V241.632H344.288V237.462ZM336.248 240.912H354.668V246.852H338.768V250.122H336.308V245.082H352.208V242.772H336.248V240.912ZM336.308 249.372H355.478V251.262H336.308V249.372ZM371.765 226.302H373.925V228.372C373.925 234.282 368.435 238.872 363.005 240.102L361.895 238.032C366.665 237.132 371.765 232.992 371.765 228.372V226.302ZM372.215 226.302H374.375V228.372C374.375 233.022 379.505 237.132 384.245 238.032L383.135 240.102C377.735 238.872 372.215 234.312 372.215 228.372V226.302ZM360.905 245.862H385.475V247.902H360.905V245.862ZM400.143 231.552H404.763V233.592H400.143V231.552ZM389.733 237.582H391.443C395.673 237.582 398.193 237.462 401.193 236.862L401.433 238.872C398.313 239.502 395.763 239.592 391.443 239.592H389.733V237.582ZM389.733 226.362H399.963V228.372H392.133V238.482H389.733V226.362ZM391.383 231.882H398.883V233.832H391.383V231.882ZM393.093 242.532H411.333V251.562H408.873V244.542H393.093V242.532ZM408.963 224.442H411.333V241.242H408.963V224.442ZM403.743 225.012H406.083V241.032H403.743V225.012ZM444.327 224.442H446.727V251.562H444.327V224.442ZM439.947 235.332H445.137V237.372H439.947V235.332ZM432.927 227.922H435.327C435.327 234.912 432.927 241.392 425.187 245.742L423.717 243.972C430.527 240.162 432.927 234.672 432.927 228.402V227.922ZM424.767 227.922H433.767V229.992H424.767V227.922ZM438.297 225.162H440.667V250.242H438.297V225.162ZM452.455 225.552H454.915V229.452H462.565V225.552H464.995V237.402H452.455V225.552ZM454.915 231.402V235.392H462.565V231.402H454.915ZM469.885 224.442H472.375V238.422H469.885V224.442ZM471.295 230.262H476.365V232.332H471.295V230.262ZM455.155 239.742H472.375V246.312H457.675V250.392H455.215V244.452H469.945V241.722H455.155V239.742ZM455.215 249.282H473.365V251.262H455.215V249.282ZM485.632 228.312H487.612V232.722C487.612 238.362 484.162 244.182 479.932 246.342L478.492 244.362C482.362 242.472 485.632 237.312 485.632 232.722V228.312ZM486.082 228.312H488.062V232.722C488.062 237.012 491.122 241.842 495.052 243.702L493.642 245.682C489.352 243.552 486.082 238.092 486.082 232.722V228.312ZM479.452 227.202H494.062V229.302H479.452V227.202ZM497.272 224.442H499.792V251.562H497.272V224.442ZM499.192 235.392H504.232V237.492H499.192V235.392ZM532.517 224.412H535.037V251.562H532.517V224.412ZM534.347 235.422H539.357V237.492H534.347V235.422ZM525.587 227.352H528.017C528.017 235.062 524.477 242.022 515.717 246.432L514.337 244.512C521.837 240.702 525.587 234.912 525.587 227.742V227.352ZM515.597 227.352H526.877V229.392H515.597V227.352ZM541.784 246.042H566.354V248.112H541.784V246.042ZM552.764 239.562H555.254V246.642H552.764V239.562ZM544.664 226.362H547.124V231.192H560.954V226.362H563.414V240.222H544.664V226.362ZM547.124 233.202V238.182H560.954V233.202H547.124ZM576.072 228.312H578.052V232.722C578.052 238.362 574.602 244.182 570.372 246.342L568.932 244.362C572.802 242.472 576.072 237.312 576.072 232.722V228.312ZM576.522 228.312H578.502V232.722C578.502 237.012 581.562 241.842 585.492 243.702L584.082 245.682C579.792 243.552 576.522 238.092 576.522 232.722V228.312ZM569.892 227.202H584.502V229.302H569.892V227.202ZM587.712 224.442H590.232V251.562H587.712V224.442ZM589.632 235.392H594.672V237.492H589.632V235.392ZM599.559 227.142H617.019V229.212H599.559V227.142ZM596.979 245.712H621.489V247.782H596.979V245.712ZM606.489 236.022H608.979V246.732H606.489V236.022ZM616.089 227.142H618.549V229.842C618.549 233.202 618.549 236.922 617.559 242.412L615.069 242.082C616.089 236.892 616.089 233.082 616.089 229.842V227.142ZM628.357 245.022C629.057 245.022 629.597 245.232 629.977 245.652C630.357 246.072 630.547 246.612 630.547 247.272C630.547 247.912 630.357 248.452 629.977 248.892C629.597 249.332 629.027 249.552 628.267 249.552C627.567 249.552 627.027 249.332 626.647 248.892C626.287 248.452 626.107 247.932 626.107 247.332C626.107 246.692 626.297 246.152 626.677 245.712C627.057 245.252 627.617 245.022 628.357 245.022ZM626.887 228.912H630.697L629.827 242.622H626.887V228.912ZM637.937 245.022C638.637 245.022 639.177 245.232 639.557 245.652C639.937 246.072 640.127 246.612 640.127 247.272C640.127 247.912 639.937 248.452 639.557 248.892C639.177 249.332 638.607 249.552 637.847 249.552C637.147 249.552 636.607 249.332 636.227 248.892C635.867 248.452 635.687 247.932 635.687 247.332C635.687 246.692 635.877 246.152 636.257 245.712C636.637 245.252 637.197 245.022 637.937 245.022ZM636.467 228.912H640.277L639.407 242.622H636.467V228.912Z" fill="black"/>
<g filter="url(#filter0_d_193_186)">
<ellipse cx="1149.5" cy="233.5" rx="113.5" ry="114.5" fill="#FFF700"/>
<path d="M1115.52 251.121C1115.52 253.681 1115.16 255.814 1114.43 257.521C1113.75 259.27 1112.86 260.742 1111.75 261.937C1110.68 263.131 1109.46 264.113 1108.1 264.881C1106.78 265.649 1105.47 266.353 1104.19 266.993L1101.19 261.937C1102.85 261.126 1104.13 260.251 1105.03 259.313C1105.96 258.417 1106.65 257.521 1107.07 256.625C1107.5 255.771 1107.74 254.939 1107.78 254.129C1107.86 253.318 1107.91 252.571 1107.91 251.889V209.393H1115.52V251.121ZM1136.95 208.817C1138.44 208.817 1139.87 208.966 1141.24 209.265C1142.6 209.521 1143.84 209.841 1144.95 210.225C1146.1 210.566 1147.06 210.929 1147.83 211.313C1148.64 211.697 1149.19 211.995 1149.49 212.209L1146.36 217.713L1145.52 217.265C1144.97 216.966 1144.24 216.625 1143.35 216.241C1142.45 215.857 1141.47 215.515 1140.4 215.217C1139.34 214.918 1138.31 214.769 1137.33 214.769C1135.8 214.769 1134.45 215.131 1133.3 215.857C1132.19 216.582 1131.64 217.713 1131.64 219.249C1131.64 221.169 1132.25 222.747 1133.49 223.985C1134.73 225.179 1136.67 226.289 1139.32 227.313C1141.02 227.995 1142.54 228.721 1143.86 229.489C1145.23 230.214 1146.38 231.067 1147.32 232.049C1148.25 233.03 1148.96 234.161 1149.43 235.441C1149.94 236.721 1150.2 238.257 1150.2 240.049C1150.2 241.67 1149.88 243.27 1149.24 244.849C1148.64 246.427 1147.72 247.835 1146.48 249.073C1145.29 250.267 1143.8 251.249 1142 252.017C1140.21 252.742 1138.14 253.105 1135.8 253.105C1134.13 253.105 1132.55 252.934 1131.06 252.593C1129.57 252.251 1128.2 251.867 1126.96 251.441C1125.77 250.971 1124.72 250.502 1123.83 250.033C1122.97 249.563 1122.33 249.201 1121.91 248.945L1124.6 243.057L1125.75 243.697C1126.52 244.123 1127.45 244.593 1128.56 245.105C1129.67 245.617 1130.85 246.086 1132.08 246.513C1133.32 246.939 1134.39 247.153 1135.28 247.153C1137.55 247.153 1139.23 246.598 1140.34 245.489C1141.45 244.379 1142 242.822 1142 240.817C1142 239.878 1141.85 239.067 1141.56 238.385C1141.26 237.659 1140.83 237.041 1140.28 236.529C1139.72 236.017 1139.04 235.569 1138.23 235.185C1137.46 234.758 1136.59 234.353 1135.6 233.969C1133.68 233.158 1131.96 232.347 1130.42 231.537C1128.93 230.726 1127.65 229.809 1126.58 228.785C1125.51 227.718 1124.7 226.523 1124.15 225.201C1123.59 223.835 1123.32 222.214 1123.32 220.337C1123.32 218.758 1123.66 217.286 1124.34 215.921C1125.02 214.513 1125.96 213.297 1127.16 212.273C1128.35 211.206 1129.78 210.374 1131.44 209.777C1133.11 209.137 1134.94 208.817 1136.95 208.817Z" fill="black"/>
</g>
<defs>
<filter id="filter0_d_193_186" x="1032" y="119" width="235" height="237" filterUnits="userSpaceOnUse" color-interpolation-filters="sRGB">
<feFlood flood-opacity="0" result="BackgroundImageFix"/>
<feColorMatrix in="SourceAlpha" type="matrix" values="0 0 0 0 0 0 0 0 0 0 0 0 0 0 0 0 0 0 127 0" result="hardAlpha"/>
<feOffset dy="4"/>
<feGaussianBlur stdDeviation="2"/>
<feComposite in2="hardAlpha" operator="out"/>
<feColorMatrix type="matrix" values="0 0 0 0 0 0 0 0 0 0 0 0 0 0 0 0 0 0 0.25 0"/>
<feBlend mode="normal" in2="BackgroundImageFix" result="effect1_dropShadow_193_186"/>
<feBlend mode="normal" in="SourceGraphic" in2="effect1_dropShadow_193_186" result="shape"/>
</filter>
</defs>
</svg>
